<svg xmlns="http://www.w3.org/2000/svg" xmlns:xlink="http://www.w3.org/1999/xlink" viewBox="0 0 24 24" fill="#5B5B5B">
  <path d="M12 5C10.35499 5 9 6.3549904 9 8C9 9.6450096 10.35499 11 12 11C13.64501 11 15 9.6450096 15 8C15 6.3549904 13.64501 5 12 5 z M 5 7 A 2 2 0 0 0 3 9 A 2 2 0 0 0 5 11 A 2 2 0 0 0 7 9 A 2 2 0 0 0 5 7 z M 19 7 A 2 2 0 0 0 17 9 A 2 2 0 0 0 19 11 A 2 2 0 0 0 21 9 A 2 2 0 0 0 19 7 z M 5 13C2.815 13 1 13.908797 1 15.216797L1 17L4 17L4 16.216797C4 14.961797 4.5269844 13.877438 5.4589844 13.023438C5.3069844 13.014438 5.157 13 5 13 z M 12 13C8.468 13 6 14.322797 6 16.216797L6 19L18 19L18 16.216797C18 14.322797 15.532 13 12 13 z M 19 13C18.843 13 18.693016 13.014437 18.541016 13.023438C19.473016 13.877438 20 14.962797 20 16.216797L20 17L23 17L23 15.216797C23 13.908797 21.185 13 19 13 z" fill="#5B5B5B" />
</svg>