<svg xmlns="http://www.w3.org/2000/svg" xmlns:xlink="http://www.w3.org/1999/xlink" viewBox="0 0 30 30" fill="#5B5B5B">
  <path d="M15 3 A 1 1 0 0 0 14.527344 3.1191406L0.53710938 10.113281L0.53710938 10.115234 A 1 1 0 0 0 0 11 A 1 1 0 0 0 0.53710938 11.884766L0.53710938 11.886719L14.521484 18.876953 A 1 1 0 0 0 15 19 A 1 1 0 0 0 15.472656 18.880859L29.453125 11.890625 A 1 1 0 0 0 29.462891 11.886719L29.462891 11.884766 A 1 1 0 0 0 30 11 A 1 1 0 0 0 29.462891 10.115234L29.462891 10.113281L15.478516 3.1230469 A 1 1 0 0 0 15 3 z M 29 14.353516L27 15.353516L27 24.277344C26.404366 24.623613 26 25.261054 26 26C26 27.105 28 30 28 30C28 30 30 27.105 30 26C30 25.261054 29.595634 24.623613 29 24.277344L29 14.353516 z M 6 16.851562L6 21C6 23.761 10.029 26 15 26C19.971 26 24 23.761 24 21L24 16.851562L16.365234 20.669922C16.281234 20.711922 16.197328 20.746391 16.111328 20.775391C15.749328 20.924391 15.377 21 15 21C14.624 21 14.252578 20.924391 13.892578 20.775391C13.805578 20.746391 13.719766 20.710969 13.634766 20.667969L6 16.851562 z" fill="#5B5B5B" />
</svg>